<svg xmlns="http://www.w3.org/2000/svg" xmlns:xlink="http://www.w3.org/1999/xlink" version="1.1" width="256" height="256" viewBox="0 0 256 256" xml:space="preserve">

<defs>
</defs>
<g style="stroke: none; stroke-width: 0; stroke-dasharray: none; stroke-linecap: butt; stroke-linejoin: miter; stroke-miterlimit: 10; fill: none; fill-rule: nonzero; opacity: 1;" transform="translate(1.4065934065934016 1.4065934065934016) scale(2.81 2.81)" >
	<path d="M 37.712 41.541 c -2.437 -10.14 2.919 -19.609 8.772 -25.137 c -6.221 11.54 -7.41 20.104 -3.461 33.177 l 2.29 -0.854 c -0.882 -2.464 -1.413 -4.873 -1.685 -7.241 c 8.23 -2.355 13.883 -7.209 15.231 -15.926 C 59.796 13.651 52.042 6.72 43.718 0.117 c 3.04 9.758 -11.581 17.964 -10.296 30.949 c 0.271 2.741 0.697 5.33 1.326 7.825" style="stroke: none; stroke-width: 1; stroke-dasharray: none; stroke-linecap: butt; stroke-linejoin: miter; stroke-miterlimit: 10; fill: rgb(127,178,65); fill-rule: nonzero; opacity: 1;" transform=" matrix(1 0 0 1 0 0) " stroke-linecap="round" />
	<path d="M 34.069 30.999 c 0.917 -12.923 13.599 -21.098 9.649 -30.883 c 1.394 8.216 -9.771 12.38 -12.663 22.195 c -1.575 5.836 -1.151 11.452 3.693 16.579 C 34.119 36.396 33.937 33.751 34.069 30.999 z" style="stroke: none; stroke-width: 1; stroke-dasharray: none; stroke-linecap: butt; stroke-linejoin: miter; stroke-miterlimit: 10; fill: rgb(113,156,64); fill-rule: nonzero; opacity: 1;" transform=" matrix(1 0 0 1 0 0) " stroke-linecap="round" />
	<polygon points="68.77,61.09 70.46,47.61 43.69,47.61 19.54,47.61 21.23,61.09 " style="stroke: none; stroke-width: 1; stroke-dasharray: none; stroke-linecap: butt; stroke-linejoin: miter; stroke-miterlimit: 10; fill: rgb(160,126,99); fill-rule: nonzero; opacity: 1;" transform="  matrix(1 0 0 1 0 0) "/>
	<polyline points="63.11,61.09 59.5,90 44.01,90 30.5,90 26.89,61.09 " style="stroke: none; stroke-width: 1; stroke-dasharray: none; stroke-linecap: butt; stroke-linejoin: miter; stroke-miterlimit: 10; fill: rgb(160,126,99); fill-rule: nonzero; opacity: 1;" transform="  matrix(1 0 0 1 0 0) "/>
	<polygon points="62.61,65.09 63.11,61.09 26.89,61.09 27.39,65.09 " style="stroke: none; stroke-width: 1; stroke-dasharray: none; stroke-linecap: butt; stroke-linejoin: miter; stroke-miterlimit: 10; fill: rgb(145,107,77); fill-rule: nonzero; opacity: 1;" transform="  matrix(1 0 0 1 0 0) "/>
</g>
</svg>